# xmcd
#
# Track frame offsets:
#	150
#	11192
#	22127
#	35311
#	47150
#	58766
#	71635
#	80505
#	91989
#	104662
#	117443
#	128909
#	146026
#	158978
#	170203
#	183229
#
# Disc length: 2599 seconds
#
# Revision: 2
# Processed by: cddbd v1.5.2PL0 Copyright (c) Steve Scherf et al.
# Submitted via: audiograbber 1.83.01
#
DISCID=ec0a2510
DTITLE=Various Artist - Golden Age of Country - Crazy Arms - Disc 1
DYEAR=2009
DGENRE=Country
TTITLE0=Marty Robbins - Singing the Blues
TTITLE1=Carl Smith - (When You Feel Like You're in Love) Don't Just Stand There
TTITLE2=Lefty Frizzell - If You've Got the Money I've Got the Time
TTITLE3=Don Gibson - I Can't Stop Lovin' You
TTITLE4=Ray Price - Crazy Arms
TTITLE5=Jim Reeves - Four Walls
TTITLE6=Elvis Presley - That's All Right
TTITLE7=Eddy Arnold and His Guitar - The Cattle Call
TTITLE8=Hank Snow - I'm Moving On
TTITLE9=Porter Wagoner - The Carroll County Accident
TTITLE10=Johnny Horton - The Battle of New Orleans
TTITLE11=Johnny Cash - A Boy Named Sue
TTITLE12=The Browns - The Three Bells (Les Trois Cloches)
TTITLE13=Stonewall Jackson - Waterloo
TTITLE14=Tammy Wynette and David Houston - My Elusive Dreams
TTITLE15=Skeeter Davis - The End of the World
EXTD=
EXTT0=
EXTT1=
EXTT2=
EXTT3=
EXTT4=
EXTT5=
EXTT6=
EXTT7=
EXTT8=
EXTT9=
EXTT10=
EXTT11=
EXTT12=
EXTT13=
EXTT14=
EXTT15=
PLAYORDER=
